<svg xmlns="http://www.w3.org/2000/svg" height="360.1" width="824.1"><path d="M144.7-.025C64.87-.025.025 64.68.025 143.8c0 79.1 64.845 143.7 144.675 143.7 29.6 0 57.1-8.9 80-24h.4c.6.9 1.3 1.8 2 2.6.3.6.6 1.1.9 1.7 1.6 1.3 2.9 2.1 4.1 2.3.7 1 1.6 1.9 2.8 2.7.4.5.7.9 1.1 1.2.5.6 1.1 1.2 1.8 1.7.8.7 1.3.9 1.5.8h.2c.9 1.3 2.1 2.5 3.7 3.5.3.4.7.8 1 1 .7.7 1.5 1.4 2.5 2 .6 1 1.4 1.9 2.5 2.7.2.1.5.2.7.3.9 1.4 2.2 2.5 4 3.3 4 1.6 5.7 5.4 6.1 3.6.1.1.1.1.3.2 1.1 3.9 2.1 4.6 2.8 3.8.6.6 1.2 1.2 1.9 1.7.7 1.5 1.7 2.9 3.2 4.1.6.4 1.2.5 1.8.6.8 1.3 1.9 2.4 3.4 3.2 2 4.3 3.1 3.9 3.5 2.1 1 .8 2.2 1.3 3.8 1.5 1.2.9 2.4 1.7 3.8 2.2.6.5 1.3 1 1.9 1.4 2.1 5.3 3 2.5 2.8-.8.2 0 .4-.1.4-.2.6.1 1.1.1 1.6 0 2.2.9 2.7.1 2.2-1.4.2-.2.3-.5.6-.9-.2-.2-.4-.4-.6-.5.7-1 .8-2.1.3-3.1 0-.2 0-.3.2-.5-.2-.6-.5-1.2-.7-1.7 0-1.1-.3-2.3-1.2-3.1 0-.2-.2-.3-.3-.4 0-1.1-.3-2.2-1-3.3-.3-1.4-1-2.7-1.8-3.7-.2-1.3-1.2-2.6-2.5-3.7 0-2.1-1.8-4-3.9-5.5-.7-1.4-1.6-2.7-2.7-3.7-.3-.5-.7-1-1.4-1.6-.3-.7-.7-1.4-1.2-2 .3-2.7-1.4-5.6-3.8-7.5-.3-1-.8-1.9-1.5-2.7 0-.8-.5-1.7-1.7-2.3-.4-.6-.9-1.2-1.4-1.7-.5-1.2-1.4-2.4-2.3-3.5-.4-1.8-2.1-4.3-3.7-5.7-.6-1.2-1.7-2.4-3-3.4-.3-1.8-.9-3.6-1.9-4.3-.4-.2-.7-.4-1-.6.1-.3.1-.6 0-1-1.3-.5-2.6-1.4-3.8-2.4l-1.5-2.1c23.5-25.5 37.7-59.5 37.7-96.6C289.3 64.68 224.6-.025 144.7-.025zm616.1 6v3.7h12V39.28h4.4V9.674h12v-3.7h-28.4zm32.8 0V39.28h4.2V9.975l8.8 22.905h4.5l8.6-22.905V39.28h4.4V5.975h-6.8l-8.5 22.705-8.6-22.705h-6.6zm-95.9 2.6V99.08c-10.4-9.4-25.8-14.2-45.9-14.2-24.2 0-45 10.4-62.5 31.22-17.4 20.6-26.2 45.5-26.2 74.8 0 29.1 7.6 52.5 22.7 69.9 15.3 17.5 35.1 26.3 59.4 26.3 22.9 0 40.5-6.1 52.5-18.1v14.4h34.5V8.575h-34.5zm-186 13.405v38h38v-38h-38zm-367 9.7c62.3 0 112.6 49.9 112.6 112.12 0 27.8-10.1 53.1-26.8 72.6-.2-.4-.4-.6-.7-1 1.6-.7-1.6-2.3-4-4.3.5-1-3.5-2.7-5.3-5.5-.4-.5-1-.8-1.6-1.1-.8-1.3-1.9-2.3-3.2-3.1-.9-2.1-3-3.5-5.5-4.2-1.4-1.7-2.9-3.2-4.9-3.7-1-.8-2-1.5-2.8-1.7-1-1.8-3-2.8-5-3.2-1-2-2.6-3.4-5-3.4-1.6-1.5-3.4-2.6-5.8-2.2h-.2c-1.7-1-3.4-1.7-5.6-1.2-.4.2-.9.3-1.3.6 1.9-2.5 3.9-4.9 5.6-7.6-2 .8-4.2 1.6-6.2 2.3-.9.2-1.8.6-2.6 1 .3-1.7 1-3.3 2.4-4.8 2.9-3.4-2.8.1-3.8-.2-1 .3-1.9.7-2.6 1.2-.3-.7-.7-1.4-1.2-2.1.3-2.1.8-4.1 1.1-6.2-1.1 1.2-2.2 2.5-3.2 3.7-.1 0-.1-.1-.2-.1-1.8-3.7-1.5-1.1-1.1 1.6l-.3.3c-1.4 2-2 4.1-2.1 6.4-1.2-.5-2.5-.8-4-.9-7.7-3.4.6 2.4 1.9 4.4.6.4 1 .9 1.5 1.4-7.2-4.1-14.6-7.4-22.6-9.2h-1.3c-11-.9-3.6 2.6 2.3 5.7 5.7 3.1 11.3 6.4 17 9.8-1.7-.5-3.3-1.1-4.8-2-2.1-1.3.2 1.6 1.5 3.4-3.1 1.4-5.3 4.6-4.6 8.4.5.1 1 0 1.7-.3 0 .1-.1.1-.1.2-.7.2-1.3.4-2.1.5.5.2 1.1.4 1.6.6-.5 1.3-.7 2.8-.6 4.4-.3 2.9 2.7-1 5.1-3.1h.1c-.1.9-.1 1.8.1 2.8-1.4 8.4 2.9.1 5.3-3.1.1 0 .2 0 .3-.1-1.2 2.3-1.4 4.7.6 7.1.3.3.5.5.7.8.1.7.4 1.5.9 2.3.5.7 1.3 1.2 2 1.5.2.6.4 1.1.6 1.7 1.1 1.1 2.3 1.8 3.5 2.1.4 1 1 1.9 1.9 2.8.8.6 1.6 1 2.3 1.4.3.3.5.6.7.9.9.7 1.8 1.4 2.7 2 .8 1.8 2.1 3.4 3.9 4.6.5.2.9.4 1.2.5.6.8 1.2 1.5 2.1 2.2.9.6 1.6 1.1 2.3 1.4.2.3.5.7.8 1 .9.8 2.3 1.6 3.6 2 .3.5.7 1.1 1.3 1.6 1.1.9 2.4 1.7 3.5 2.4.4.5 1 1 1.6 1.4.3.2.6.4.9.5-16.5 9.4-35.6 14.8-56.1 14.8-62.27 0-112.46-49.9-112.46-112 0-62.22 50.19-112.12 112.46-112.12zm251.6 53.2c-18.4 0-34.3 6.6-47.4 19.72V88.58h-34.6V360.1h34.6v-87.3c2.6 3.8 8.7 7.2 18 10.1 9.4 2.9 18.3 4.3 26.5 4.3 29.4 0 51.9-9.3 67.5-28 15.4-18.8 23.3-43 23.3-72.7 0-33.2-7.8-58.5-23.2-75.7-15.4-17.32-36.9-25.92-64.7-25.92zm87.5 3.7v29.12h26.7v165.9h34.7V88.58h-61.4zM383.4 114.1c22.5 0 38.8 5.7 49 17.1 10.2 11.4 15.4 29.4 15.4 54 0 48.6-21.5 72.9-64.5 72.9-6.6 0-13.5-1.5-20.6-4.4-7-3-11.7-6.2-13.8-9.5V130.6c4.1-4.2 9.7-8 16.8-11.4 7-3.4 12.8-5.1 17.7-5.1zm278.5 0c15.1 0 27.2 6.5 35.9 19.6v108.2c-1.9 3.9-6.8 7.6-14.4 11.1-7.7 3.4-14.2 5.1-19.6 5.1-42.8 0-64.1-23.5-64.1-70.5 0-21.3 5.7-39 17.1-52.8 11.5-13.8 26.5-20.7 45.1-20.7z"/></svg>