<svg xmlns="http://www.w3.org/2000/svg" viewBox="0 0 273.3 94.78"><path d="M60.91 38.24l-3.03 1.94-11.52-16.24L49.27 22zm-4.13 3.64l-2.42 2.79-15.76-13.1 2.43-2.66zm-3.75 4l-1.58 3.03-17.81-9.09 1.69-3.03zm-2.06 5.21l-.85 3.51-19.76-4.84.85-3.64zm-21.25 3.32L50 56.28l-.34 3.62-20.28-1.87zm-4.08-2.23H22v20.6h35.15v-20.6h-3.64v16.97H25.64zm3.63 9.7h20.61v3.63H29.27zm217.03 7.15h-3.4l-3.5-10.43-3.5 10.43h-3.4l-5.1-16.61h4.4l2.7 10.31 3.4-10.31h3l3.4 10.31 2.6-10.31h4.4l-5 16.61zm-20.4-1.82c-1 1.09-2.7 2.06-5.3 2.06-2.4 0-4.1-.97-5.2-2.06-1.4-1.58-1.9-3.52-1.9-6.55s.4-4.84 1.9-6.42c1-1.09 2.7-2.06 5.2-2.06s4.2.97 5.3 2.06c1.4 1.58 1.9 3.52 1.9 6.42-.1 3.16-.5 4.97-1.9 6.55zm-3.3-10.54c-.5-.49-1.1-.73-2-.73-.8 0-1.4.24-1.9.73-.8.84-1 2.3-1 3.99 0 1.7.2 3.16 1 4.13.5.48 1.1.72 1.9.72.9 0 1.5-.24 2-.72.8-.85 1-2.31 1-4.13 0-1.69-.2-3.15-1-3.99zm-21.8-1.1v13.46h-4.2V55.57H195v-3.15h1.6v-2.06c0-2.42 1.5-4.72 4.9-4.72h2.4v3.51h-1.6c-.9 0-1.4.49-1.4 1.46v1.81h3v3.15h-3.1zm9.8 13.46c-3.4 0-4.9-2.43-4.9-4.73V45.51h4.2v18.43c0 .97.3 1.45 1.4 1.45h1.6v3.52l-2.3.12zm-19.9-12.12c-.6-.61-1.2-.97-2.2-.97-1.3 0-2.6.97-2.6 3.03v10.06h-4.2V52.42h4.2V54c.8-.97 2.4-1.82 4.2-1.82 1.6 0 2.8.36 3.9 1.58l-3.3 3.15zM169.1 62c0 2.18 1.4 3.76 3.7 3.76 1.8 0 2.6-.49 3.7-1.58l2.6 2.42c-1.7 1.7-3.3 2.67-6.3 2.67-3.9 0-7.8-1.82-7.8-8.61 0-5.45 2.9-8.48 7.3-8.48 4.6 0 7.3 3.39 7.3 8V62h-10.5zm6-4.61c-.5-.97-1.4-1.69-2.8-1.69-1.5 0-2.3.72-2.8 1.69-.2.61-.4 1.09-.4 1.82h6.3c0-.73-.1-1.21-.3-1.82zm-16 11.64h-3.3l-6.2-16.61h4.4l3.4 10.31 3.4-10.31h4.3l-6 16.61zm-11.3-1.82c-1 1.09-2.7 2.06-5.2 2.06-2.4 0-4.1-.97-5.2-2.06-1.5-1.58-2-3.52-2-6.55s.4-4.84 2-6.42c1-1.09 2.7-2.06 5.2-2.06 2.4 0 4.1.97 5.2 2.06 1.5 1.58 1.9 3.52 1.9 6.42 0 3.16-.4 4.97-1.9 6.55zm-3.3-10.54c-.5-.49-1.1-.73-1.9-.73-.8 0-1.5.24-1.9.73-.9.84-1 2.3-1 3.99 0 1.7.1 3.16 1 4.13.4.48 1.1.72 1.9.72.8 0 1.4-.24 1.9-.72.9-.85 1-2.31 1-4.13 0-1.69 0-3.15-1-3.99zm-12.7 12.36l-5.2-8.49-3.3 3.76v4.85h-2.4V45.03h2.4v16.12l7.5-8.61h3.1l-5.7 6.31 6.6 10.3-3-.12zm-18.8.24c-4.2 0-7.4-2.79-7.4-8.48 0-5.7 3.2-8.49 7.4-8.49 2.3 0 3.8.61 5.5 2.43l-1.7 1.57c-1.2-1.33-2.2-1.82-3.8-1.82-1.5 0-3 .61-3.9 1.94-.7 1.09-1 2.43-1 4.49s.3 3.39 1 4.48c.9 1.21 2.2 1.94 3.9 1.94 1.6 0 2.6-.48 3.8-1.94l1.7 1.58c-1.7 1.69-3.2 2.3-5.5 2.3zm-11.9-.24v-1.58c-1.29 1.34-2.5 1.82-4.8 1.82-2.31 0-3.64-.48-4.73-1.58-.85-.84-1.21-2.06-1.21-3.39 0-2.91 2.06-4.85 5.69-4.85H101v-1.57c0-2.43-1.19-3.64-4.22-3.64-2.18 0-3.15.49-4.24 1.94l-1.46-1.45c1.46-1.94 3.16-2.43 5.82-2.43 4.5 0 6.7 1.94 6.7 5.58v11.27l-2.5-.12zm0-7.64h-4.56c-2.55 0-3.76.97-3.76 2.91 0 1.94 1.21 2.79 3.76 2.79 1.45 0 2.66-.12 3.76-1.09.6-.49.8-1.46.8-2.91v-1.7zm-14.26 7.64c-2.79 0-4.24-1.94-4.24-4.49V54.36h-2.06v-1.82h2.06v-5.21h2.42v5.21h3.52v1.82h-3.52v10.18c0 1.58.73 2.43 2.31 2.43h1.33v2.06h-1.82zm-14.18.24c-2.79 0-4.97-.61-6.79-2.42l1.58-1.58c1.33 1.33 3.15 1.94 5.21 1.94 2.79 0 4.49-.97 4.49-2.91 0-1.45-.85-2.3-2.79-2.42l-2.79-.25c-3.27-.24-4.97-1.69-4.97-4.48 0-3.03 2.55-4.85 6.06-4.85 2.43 0 4.49.61 5.94 1.82l-1.58 1.58c-1.21-.97-2.66-1.34-4.48-1.34-2.42 0-3.76 1.09-3.76 2.79 0 1.45.85 2.3 2.91 2.42l2.67.25c2.91.24 4.85 1.33 4.85 4.48.24 3.15-2.55 4.97-6.55 4.97z"/></svg>