<svg xmlns="http://www.w3.org/2000/svg" viewBox="0 0 223.2 158.1"><path d="M98.73 22.01c-.4 0-.7.1-1.1.3L23.7 56.61c-1.47.8-2.11 2.6-1.43 3.9l34.46 73.89c.67 1.5 2.47 2.1 3.9 1.5l73.87-34.4c1.5-.8 2.1-2.39 1.4-3.89l-6.5-14-.2-12.4c0-3.5-.1-8.3-.4-11.7.8 2.5 3.3 8.4 5.6 13.5l7 15.7h8.7v-41.1h-7.9l.2 16.8c.1 2.9.3 8.1.6 11.4-.8-3-2.4-7.3-4.5-11.7l-7.8-16.5h-9.2v19l-20-43c-.5-1.1-1.67-1.7-2.77-1.6zm-53.48 26.1h32.68l-21.5 31.9h22.2v-31.9h18.5c11.37 0 20.77 8.8 20.77 20.4 0 11.5-9.5 20.5-20.77 20.5h-6.7v-9h4.7c6.27 0 11.67-3.6 11.67-11.5 0-7.4-4.8-11.4-11.57-11.4h-6v20.4l-7.8 11.5H37.36l21.62-31.9H39.21zm149.15 1.2l-8 1.9c-.3 2.3-.3 4.4-.3 7.2H183v5.3h3.1v16.6c0 2.9 0 3.5.5 4.8.9 2.6 4.1 4.4 8.2 4.4 2.1 0 4.1-.5 6.4-1.4l-1-4.8c-1.4.5-2.1.6-2.8.6-2.7 0-3.5-.9-3.5-4.8v-15.4h5.1l2.1-5.3h-7.2c0-3.1.2-6.3.5-9.1zm-26.9 8.5c-4.1 0-7.1 1.4-9.6 4.2-2.7 2.9-3.8 6.5-3.8 12 0 9.5 5.6 15.6 14.4 15.6 4.2 0 7.9-1.3 11.4-4.2l-3.1-4.8c-2.4 2.1-5 3.2-7.7 3.2-4.1 0-6.4-2.7-6.4-7.4v-.3h17.6v-1.8c0-6.3-1.3-10.5-4.1-13.2-1.9-2.1-5.3-3.3-8.7-3.3zm.1 5.9c1.6 0 2.7.6 3.5 1.6.7 1.2.9 2.4.9 4.7v.4h-9.2v-.1c0-4.4 1.7-6.6 4.8-6.6z"/></svg>